<svg width="32" height="32" viewBox="0 0 32 32" fill="none" xmlns="http://www.w3.org/2000/svg">
  <path fill-rule="evenodd" clip-rule="evenodd" d="M22.2732 0.0725098H31.2685C31.6726 0.0725098 32.0001 0.426165 32 0.862421V10.5755C32 11.0117 31.6725 11.3654 31.2685 11.3654H22.2732C21.8691 11.3654 21.5416 11.0117 21.5416 10.5755V0.862421C21.5416 0.426165 21.8691 0.0725098 22.2732 0.0725098ZM23.0048 9.78539H30.537V1.65216H23.0048V9.78539Z" fill="white"/>
  <path fill-rule="evenodd" clip-rule="evenodd" d="M28.2979 8.24758H25.0772C24.6733 8.24758 24.3457 7.89392 24.3457 7.45766V3.9801C24.3457 3.54384 24.6732 3.19019 25.0772 3.19019H28.2979C28.7019 3.19019 29.0294 3.54384 29.0294 3.9801V7.45766C29.0294 7.89392 28.7019 8.24758 28.2979 8.24758ZM27.5664 4.76984H25.8088V6.66758H27.5664V4.76984Z" fill="white"/>
  <path fill-rule="evenodd" clip-rule="evenodd" d="M0.731535 0.0725098H9.72684C10.1309 0.0725098 10.4584 0.426165 10.4584 0.862421V10.5755C10.4584 11.0117 10.1309 11.3654 9.72684 11.3654H0.731535C0.327519 11.3654 0 11.0117 0 10.5755V0.862421C0 0.426165 0.327519 0.0725098 0.731535 0.0725098ZM1.46313 9.78539H8.99537V1.65216H1.46313V9.78539Z" fill="white"/>
  <path fill-rule="evenodd" clip-rule="evenodd" d="M6.83962 8.24758H3.61899C3.21504 8.24758 2.88745 7.89392 2.88745 7.45766V3.9801C2.88745 3.54384 3.21497 3.19019 3.61899 3.19019H6.83962C7.24364 3.19019 7.57116 3.54384 7.57116 3.9801V7.45766C7.57116 7.89392 7.24364 8.24758 6.83962 8.24758ZM6.10803 4.76984H4.35046V6.66758H6.10803V4.76984Z" fill="white"/>
  <path fill-rule="evenodd" clip-rule="evenodd" d="M0.731535 20.6099H9.72684C10.1309 20.6099 10.4584 20.9635 10.4584 21.3998V31.1128C10.4584 31.5491 10.1309 31.9027 9.72684 31.9027H0.731535C0.327519 31.9027 0 31.5491 0 31.1128V21.3998C0 20.9635 0.327519 20.6099 0.731535 20.6099ZM1.46313 30.3229H8.99537V22.1897H1.46313V30.3229Z" fill="white"/>
  <path fill-rule="evenodd" clip-rule="evenodd" d="M6.83962 28.7852H3.61899C3.21504 28.7852 2.88745 28.4315 2.88745 27.9953V24.5177C2.88745 24.0814 3.21497 23.7278 3.61899 23.7278H6.83962C7.24364 23.7278 7.57116 24.0814 7.57116 24.5177V27.9953C7.57116 28.4315 7.24364 28.7852 6.83962 28.7852ZM6.10803 25.3076H4.35046V27.2054H6.10803V25.3076Z" fill="white"/>
  <path fill-rule="evenodd" clip-rule="evenodd" d="M4.09767 18.3083H0.797819C0.393803 18.3083 0.0662842 17.9546 0.0662842 17.5184V13.9552C0.0662842 13.5189 0.393803 13.1653 0.797819 13.1653H4.09767C4.50169 13.1653 4.82921 13.5189 4.82921 13.9552V17.5184C4.82921 17.9546 4.50169 18.3083 4.09767 18.3083ZM3.36559 14.745H1.52881V16.7284H3.36559V14.745Z" fill="white"/>
  <path fill-rule="evenodd" clip-rule="evenodd" d="M21.2802 20.1616H24.5801C24.9841 20.1616 25.3116 20.5153 25.3116 20.9515V24.5147C25.3116 24.951 24.9841 25.3046 24.5801 25.3046H21.2802C20.8762 25.3046 20.5487 24.951 20.5487 24.5147V20.9515C20.5487 20.5153 20.8762 20.1616 21.2802 20.1616ZM22.0118 23.7247H23.8486V21.7414H22.0118V23.7247Z" fill="white"/>
  <path fill-rule="evenodd" clip-rule="evenodd" d="M27.9686 20.1616H31.2684C31.6725 20.1616 32 20.5153 32 20.9515V24.5147C32 24.951 31.6725 25.3046 31.2684 25.3046H27.9686C27.5646 25.3046 27.2371 24.951 27.2371 24.5147V20.9515C27.2371 20.5153 27.5646 20.1616 27.9686 20.1616ZM28.7002 23.7247H30.537V21.7414H28.7002V23.7247Z" fill="white"/>
  <path fill-rule="evenodd" clip-rule="evenodd" d="M27.9686 26.8572H31.2684C31.6725 26.8572 32 27.2108 32 27.6471V31.2103C32 31.6465 31.6725 32.0002 31.2684 32.0002H27.9686C27.5646 32.0002 27.2371 31.6465 27.2371 31.2103V27.6471C27.2371 27.2108 27.5646 26.8572 27.9686 26.8572ZM28.7002 30.4202H30.537V28.4368H28.7002V30.4202Z" fill="white"/>
  <path fill-rule="evenodd" clip-rule="evenodd" d="M24.2318 26.8569H17.23V23.434C17.23 22.9977 16.9024 22.644 16.4984 22.644H13.1986C12.7946 22.644 12.467 22.9977 12.467 23.434V26.9971C12.467 27.4334 12.7946 27.787 13.1986 27.787H15.9505V31.21C15.9505 31.6463 16.2781 31.9999 16.6821 31.9999H24.2318C24.6358 31.9999 24.9633 31.6463 24.9633 31.21V27.6468C24.9633 27.2106 24.6358 26.8569 24.2318 26.8569ZM15.767 26.2072H13.9302V24.2238H15.767V26.2072ZM17.4136 30.4202H23.5002V28.4368H17.4136V30.4202Z" fill="white"/>
  <path fill-rule="evenodd" clip-rule="evenodd" d="M21.6982 13.1653H31.2684C31.6725 13.1653 32 13.5189 31.9999 13.9552V17.5184C31.9999 17.9546 31.6724 18.3083 31.2684 18.3083H21.6982C21.2942 18.3083 20.9667 17.9546 20.9667 17.5184V13.9552C20.9667 13.5189 21.2942 13.1653 21.6982 13.1653ZM22.4298 16.7284H30.5369V14.745H22.4298V16.7284Z" fill="white"/>
  <path fill-rule="evenodd" clip-rule="evenodd" d="M16.6726 18.5139C16.6726 18.9501 16.3451 19.3038 15.9411 19.3038H12.6412C12.2372 19.3038 11.9097 18.9501 11.9097 18.5139V8.23569C11.9097 7.79944 12.2372 7.44578 12.6412 7.44578H15.3506V5.143H12.6412C12.2372 5.143 11.9097 4.78935 11.9097 4.35309V0.789912C11.9097 0.353655 12.2372 0 12.6412 0H15.9411C16.3451 0 16.6726 0.353655 16.6726 0.789912V3.41091H19.382C19.786 3.41091 20.1135 3.76457 20.1135 4.20083V7.76408C20.1135 8.20034 19.786 8.55399 19.382 8.55399H16.6726V18.5139ZM18.6504 4.99074H16.8136V6.97417H18.6504V4.99074ZM15.2096 3.56311H13.3728V1.57975H15.2096V3.56311ZM15.2095 9.02573H13.3727V17.7241H15.2095V9.02573Z" fill="white"/>
</svg>
